# xmcd
#
# Track frame offsets:
#	150
#	14411
#	25605
#	42299
#	55901
#	71067
#	89129
#	101038
#	115294
#	134593
#	147045
#	161274
#	180488
#	193147
#
# Disc length: 2763 seconds
#
# Revision: 0
# Processed by: cddbd v1.4PL0 Copyright (c) Steve Scherf et al.
# Submitted via: audiograbber 1.82.02
#
DISCID=c50ac90e
DTITLE=Norah Jones - Come away with Me
DYEAR=2003
DGENRE=
TTITLE0=Don't know why
TTITLE1=Seven Days
TTITLE2=Cold cold heart
TTITLE3=Feelin the same way
TTITLE4=Come away with me
TTITLE5=Shoot the moon
TTITLE6=Turn me on
TTITLE7=Lonestar
TTITLE8=I've got to see you again
TTITLE9=If I were a painter
TTITLE10=One flight down
TTITLE11=Nightingale
TTITLE12=The long day is over
TTITLE13=The nearness of you
EXTD=Norah4
EXTT0=
EXTT1=
EXTT2=
EXTT3=
EXTT4=
EXTT5=
EXTT6=
EXTT7=
EXTT8=
EXTT9=
EXTT10=
EXTT11=
EXTT12=
EXTT13=
PLAYORDER=
